<svg width="40" height="40" viewBox="0 0 40 40" fill="none" xmlns="http://www.w3.org/2000/svg">
<path d="M4.44444 35.5555H7.61111L29.3333 13.8333L26.1667 10.6667L4.44444 32.3889V35.5555ZM0 40V30.5555L29.3333 1.27778C29.7778 0.87037 30.2689 0.555556 30.8067 0.333333C31.3444 0.111111 31.9089 0 32.5 0C33.0926 0 33.6667 0.111111 34.2222 0.333333C34.7778 0.555556 35.2592 0.888888 35.6667 1.33333L38.7222 4.44444C39.1666 4.85185 39.4911 5.33333 39.6955 5.88889C39.9 6.44444 40.0015 7 40 7.55555C40 8.14815 39.8985 8.71333 39.6955 9.25111C39.4926 9.78889 39.1681 10.2793 38.7222 10.7222L9.44444 40H0ZM27.7222 12.2778L26.1667 10.6667L29.3333 13.8333L27.7222 12.2778Z" fill="#4D4F4D"/>
</svg>
