<svg width="82" height="101" viewBox="0 0 82 101" fill="none" xmlns="http://www.w3.org/2000/svg">
<path d="M7.37935 43.9865L27.0417 0H35.0313L27.0417 18.2026C26.5427 19.3395 28.4762 19.2616 30.4097 18.1604L54.4612 0H62.7697L35.0745 22.8078L58.9617 43.9865H48.6625L32.0968 30.5173C27.5361 26.8366 25.6598 26.0917 23.4826 30.5173L16.8563 43.9865H7.37935Z" fill="#E0E0E0"/>
<path fill-rule="evenodd" clip-rule="evenodd" d="M0 46.5449V95.2679C0 96.7881 0.626168 98.2461 1.74075 99.3211C2.85534 100.396 4.36704 101 5.9433 101H59.433C61.0093 101 62.521 100.396 63.6356 99.3211C64.7502 98.2461 65.3763 96.7881 65.3763 95.2679V75.7545L39.5124 75.6897C39.2995 75.94 39.0721 76.1785 38.8313 76.4041L41.4287 82.9251C41.5669 83.272 41.618 83.6474 41.5776 84.0186C41.5372 84.3898 41.4065 84.7454 41.1969 85.0544C40.9874 85.3634 40.7054 85.6164 40.3755 85.7913C40.0456 85.9662 39.6779 86.0576 39.3046 86.0576H26.5002C26.1268 86.0576 25.7591 85.9662 25.4293 85.7913C25.0994 85.6164 24.8174 85.3634 24.6078 85.0544C24.3983 84.7454 24.2676 84.3898 24.2272 84.0186C24.1868 83.6474 24.2379 83.272 24.376 82.9251L26.9735 76.4041C25.9197 75.4204 25.1273 74.1901 24.6675 72.8239C24.2077 71.4577 24.0951 69.9986 24.3397 68.578C24.5844 67.1574 25.1786 65.82 26.0689 64.6863C26.9592 63.5526 28.1175 62.6582 29.4396 62.0837C30.7617 61.5092 32.2059 61.2727 33.6422 61.3954C35.0784 61.5182 36.4616 61.9963 37.667 62.7868C38.2088 63.142 38.707 63.5554 39.1536 64.018L65.3763 63.8076V46.5449H0Z" fill="#E0E0E0"/>
<path d="M73.8539 67.0658L32.8424 67.2582L32.8688 72.417L69.1291 72.5255V91.1515H69.781L73.8539 67.0658Z" fill="#E0E0E0"/>
<path d="M81.7763 59.7347L77.1604 91.2312H71.8924L76.5084 64.3755H67.6572V59.7347H81.7763Z" fill="#E0E0E0"/>
</svg>
