<svg width="28" height="28" viewBox="0 0 28 28" fill="none" xmlns="http://www.w3.org/2000/svg">
<path d="M24.672 18.7599L20.8032 18.3182C20.3483 18.2648 19.8872 18.3151 19.4546 18.4655C19.022 18.6159 18.629 18.8623 18.3053 19.1864L15.5027 21.9889C11.1789 19.7899 7.66439 16.2754 5.46533 11.9515L8.28312 9.13372C8.93806 8.47877 9.25792 7.5649 9.1513 6.63579L8.70959 2.7975C8.62324 2.05448 8.26666 1.36917 7.70773 0.872035C7.14881 0.374903 6.42659 0.100676 5.67857 0.101565H3.04355C1.32242 0.101565 -0.109325 1.53331 -0.0027056 3.25444C0.804553 16.262 11.2075 26.6497 24.1998 27.457C25.921 27.5636 27.3527 26.1318 27.3527 24.4107V21.7757C27.3679 20.2373 26.2103 18.9427 24.672 18.7599Z" fill="#F1F1F1"/>
</svg>
