<svg width="32" height="27" viewBox="0 0 32 27" fill="none" xmlns="http://www.w3.org/2000/svg">
<path d="M31.8639 3.61559C30.691 4.14869 29.4269 4.49901 28.117 4.66655C29.4573 3.85929 30.493 2.57987 30.9804 1.04151C29.7162 1.80307 28.315 2.33617 26.8375 2.64079C25.6343 1.3309 23.9436 0.569336 22.0244 0.569336C18.4451 0.569336 15.5207 3.49374 15.5207 7.10356C15.5207 7.62142 15.5816 8.12406 15.6882 8.59623C10.2659 8.32206 5.43757 5.71751 2.22377 1.77261C1.66021 2.73218 1.34035 3.85929 1.34035 5.04734C1.34035 7.3168 2.4827 9.32733 4.24953 10.4697C3.16811 10.4697 2.16284 10.165 1.27943 9.70811V9.7538C1.27943 12.9219 3.53366 15.5722 6.51899 16.1662C5.56053 16.4285 4.5543 16.465 3.57935 16.2728C3.99305 17.5712 4.80324 18.7074 5.89606 19.5215C6.98887 20.3357 8.30935 20.7869 9.67187 20.8117C7.36224 22.6401 4.49932 23.6285 1.55359 23.6143C1.03573 23.6143 0.517864 23.5838 0 23.5229C2.89395 25.3811 6.33622 26.4625 10.0222 26.4625C22.0244 26.4625 28.6196 16.5013 28.6196 7.86512C28.6196 7.57573 28.6196 7.30157 28.6044 7.01217C29.8838 6.09829 30.9804 4.94072 31.8639 3.61559Z" fill="#F1F1F1"/>
</svg>
