<svg width="31" height="31" viewBox="0 0 31 31" fill="none" xmlns="http://www.w3.org/2000/svg">
<path d="M8.48149 25.1225L9.58423 25.7668C11.4439 26.8514 13.559 27.4207 15.7118 27.4163C18.1218 27.4163 20.4776 26.7017 22.4814 25.3628C24.4852 24.0239 26.047 22.1208 26.9693 19.8943C27.8915 17.6678 28.1328 15.2178 27.6627 12.8541C27.1925 10.4904 26.032 8.31928 24.3279 6.61517C22.6238 4.91106 20.4526 3.75055 18.089 3.28039C15.7253 2.81023 13.2753 3.05153 11.0488 3.97379C8.82225 4.89605 6.91921 6.45783 5.5803 8.46165C4.24139 10.4655 3.52675 12.8213 3.52675 15.2313C3.5223 17.3848 4.09224 19.5005 5.17782 21.3604L5.82058 22.4631L4.82598 26.1201L8.48149 25.1225ZM0.486583 30.4626L2.54585 22.8957C1.18889 20.5697 0.475993 17.9242 0.48049 15.2313C0.48049 6.81905 7.29954 0 15.7118 0C24.124 0 30.9431 6.81905 30.9431 15.2313C30.9431 23.6435 24.124 30.4626 15.7118 30.4626C13.0201 30.4669 10.3757 29.7546 8.05044 28.3987L0.486583 30.4626ZM10.2148 8.08477C10.4189 8.06954 10.6245 8.06954 10.8286 8.07868C10.9109 8.08477 10.9931 8.09391 11.0754 8.10305C11.3176 8.13046 11.5841 8.27821 11.674 8.48231C12.1279 9.51194 12.5696 10.5492 12.996 11.5895C13.0905 11.821 13.0341 12.118 12.8544 12.4074C12.763 12.5552 12.6198 12.7623 12.4538 12.974C12.2817 13.1949 11.9116 13.6 11.9116 13.6C11.9116 13.6 11.7608 13.7797 11.8187 14.0036C11.84 14.0889 11.9101 14.2123 11.974 14.3159L12.0639 14.4606C12.4538 15.111 12.9778 15.7705 13.6175 16.3919C13.8003 16.5686 13.9785 16.7499 14.1704 16.9189C14.8832 17.548 15.6905 18.0613 16.5617 18.442L16.5693 18.4451C16.6988 18.5014 16.7643 18.5319 16.9531 18.6126C17.0476 18.6522 17.145 18.6857 17.244 18.7132C17.3464 18.7392 17.4541 18.7343 17.5536 18.6991C17.6531 18.6638 17.7399 18.5998 17.803 18.5152C18.9058 17.1794 19.0063 17.0926 19.0154 17.0926V17.0956C19.0921 17.0241 19.1831 16.9699 19.2824 16.9366C19.3817 16.9032 19.487 16.8915 19.5912 16.9022C19.6826 16.9083 19.7755 16.925 19.8608 16.9631C20.6696 17.3332 21.9932 17.9105 21.9932 17.9105L22.8796 18.308C23.0289 18.3796 23.1645 18.5487 23.169 18.7116C23.1751 18.8137 23.1843 18.9782 23.1492 19.2798C23.1005 19.6743 22.9817 20.148 22.8629 20.3962C22.7814 20.5656 22.6735 20.7209 22.543 20.8562C22.3893 21.0176 22.221 21.1644 22.0404 21.2949C21.9155 21.3893 21.85 21.4319 21.85 21.4319C21.6605 21.5521 21.4659 21.6639 21.2666 21.767C20.8745 21.9753 20.4413 22.0949 19.9979 22.1174C19.7161 22.1326 19.4343 22.1539 19.151 22.1387C19.1388 22.1387 18.2859 22.0062 18.2859 22.0062C16.1204 21.4366 14.1177 20.3695 12.4371 18.8898C12.0928 18.5867 11.773 18.2608 11.447 17.9364C10.0945 16.5884 9.06941 15.1338 8.44646 13.7599C8.1292 13.086 7.95792 12.3526 7.94382 11.6078C7.9381 10.6828 8.24092 9.78241 8.80439 9.04891C8.91558 8.90574 9.02067 8.75647 9.20193 8.58436C9.39384 8.40158 9.51721 8.3041 9.64973 8.23708C9.82591 8.14879 10.0181 8.09698 10.2148 8.08477Z" fill="#F1F1F1"/>
</svg>
